<svg width="23" height="23" viewBox="0 0 23 23" fill="none" xmlns="http://www.w3.org/2000/svg">
<path d="M0.25 0.884616C0.25 0.543278 0.540637 0.25 0.92 0.25H22.08C22.4594 0.25 22.75 0.543278 22.75 0.884615V22.1154C22.75 22.4567 22.4594 22.75 22.08 22.75H0.92C0.540638 22.75 0.25 22.4567 0.25 22.1154V0.884616ZM3.01 3.53846C3.01 3.19712 3.30064 2.90385 3.68 2.90385H19.32C19.6994 2.90385 19.99 3.19712 19.99 3.53846V6.19231C19.99 6.53365 19.6994 6.82692 19.32 6.82692H3.68C3.30064 6.82692 3.01 6.53365 3.01 6.19231V3.53846ZM3.68 2.40385C3.04316 2.40385 2.51 2.90268 2.51 3.53846V6.19231C2.51 6.82809 3.04316 7.32692 3.68 7.32692H19.32C19.9568 7.32692 20.49 6.82809 20.49 6.19231V3.53846C20.49 2.90268 19.9568 2.40385 19.32 2.40385H3.68ZM3.01 10.1731C3.01 9.83174 3.30064 9.53846 3.68 9.53846H5.98C6.35936 9.53846 6.65 9.83174 6.65 10.1731V11.5C6.65 11.8413 6.35936 12.1346 5.98 12.1346H3.68C3.30064 12.1346 3.01 11.8413 3.01 11.5V10.1731ZM3.68 9.03846C3.04316 9.03846 2.51 9.53729 2.51 10.1731V11.5C2.51 12.1358 3.04316 12.6346 3.68 12.6346H5.98C6.61684 12.6346 7.15 12.1358 7.15 11.5V10.1731C7.15 9.53729 6.61684 9.03846 5.98 9.03846H3.68ZM3.01 14.1538C3.01 13.8125 3.30064 13.5192 3.68 13.5192H5.98C6.35936 13.5192 6.65 13.8125 6.65 14.1538V15.4808C6.65 15.8221 6.35936 16.1154 5.98 16.1154H3.68C3.30064 16.1154 3.01 15.8221 3.01 15.4808V14.1538ZM3.68 13.0192C3.04316 13.0192 2.51 13.5181 2.51 14.1538V15.4808C2.51 16.1166 3.04316 16.6154 3.68 16.6154H5.98C6.61684 16.6154 7.15 16.1166 7.15 15.4808V14.1538C7.15 13.5181 6.61684 13.0192 5.98 13.0192H3.68ZM9.91 10.1731C9.91 9.83174 10.2006 9.53846 10.58 9.53846H12.88C13.2594 9.53846 13.55 9.83174 13.55 10.1731V11.5C13.55 11.8413 13.2594 12.1346 12.88 12.1346H10.58C10.2006 12.1346 9.91 11.8413 9.91 11.5V10.1731ZM10.58 9.03846C9.94316 9.03846 9.41 9.53729 9.41 10.1731V11.5C9.41 12.1358 9.94316 12.6346 10.58 12.6346H12.88C13.5168 12.6346 14.05 12.1358 14.05 11.5V10.1731C14.05 9.53729 13.5168 9.03846 12.88 9.03846H10.58ZM16.35 10.1731C16.35 9.83174 16.6406 9.53846 17.02 9.53846H19.32C19.6994 9.53846 19.99 9.83174 19.99 10.1731V11.5C19.99 11.8413 19.6994 12.1346 19.32 12.1346H17.02C16.6406 12.1346 16.35 11.8413 16.35 11.5V10.1731ZM17.02 9.03846C16.3832 9.03846 15.85 9.53729 15.85 10.1731V11.5C15.85 12.1358 16.3832 12.6346 17.02 12.6346H19.32C19.9568 12.6346 20.49 12.1358 20.49 11.5V10.1731C20.49 9.53729 19.9568 9.03846 19.32 9.03846H17.02ZM9.91 14.1538C9.91 13.8125 10.2006 13.5192 10.58 13.5192H12.88C13.2594 13.5192 13.55 13.8125 13.55 14.1538V15.4808C13.55 15.8221 13.2594 16.1154 12.88 16.1154H10.58C10.2006 16.1154 9.91 15.8221 9.91 15.4808V14.1538ZM10.58 13.0192C9.94316 13.0192 9.41 13.5181 9.41 14.1538V15.4808C9.41 16.1166 9.94316 16.6154 10.58 16.6154H12.88C13.5168 16.6154 14.05 16.1166 14.05 15.4808V14.1538C14.05 13.5181 13.5168 13.0192 12.88 13.0192H10.58ZM3.01 18.1346C3.01 17.7933 3.30064 17.5 3.68 17.5H5.98C6.35936 17.5 6.65 17.7933 6.65 18.1346V19.4615C6.65 19.8029 6.35936 20.0962 5.98 20.0962H3.68C3.30064 20.0962 3.01 19.8029 3.01 19.4615V18.1346ZM3.68 17C3.04316 17 2.51 17.4988 2.51 18.1346V19.4615C2.51 20.0973 3.04316 20.5962 3.68 20.5962H5.98C6.61684 20.5962 7.15 20.0973 7.15 19.4615V18.1346C7.15 17.4988 6.61684 17 5.98 17H3.68Z" stroke="#0E456F" stroke-width="0.5"/>
</svg>
