<svg width="23" height="23" viewBox="0 0 23 23" fill="none" xmlns="http://www.w3.org/2000/svg">
<path d="M20.9358 9.98116C21.7597 15.1755 18.205 20.0688 12.9922 20.9079C7.77954 21.747 2.88814 18.2132 2.06422 13.0189C1.24031 7.82453 4.79504 2.93124 10.0078 2.09216C15.2205 1.25309 20.1119 4.78682 20.9358 9.98116Z" stroke="#0E456F"/>
<path d="M13.7052 11.3456C13.8519 11.696 13.8425 12.0503 13.677 12.4085C13.5095 12.7622 13.1721 13.0613 12.6647 13.3059L12.9935 14.0909L12.6522 14.2339L12.3263 13.4557C11.9864 13.5766 11.6457 13.6444 11.3042 13.6591C10.9653 13.6673 10.6754 13.6202 10.4346 13.5178L10.4696 13.0458C10.6937 13.1338 10.9551 13.1768 11.2538 13.1747C11.557 13.1707 11.8535 13.1188 12.1433 13.0188L11.3913 11.2235C11.0449 11.2777 10.749 11.3053 10.5034 11.3066C10.2559 11.3032 10.0264 11.2469 9.81482 11.1376C9.60586 11.0219 9.4423 10.8229 9.32412 10.5408C9.17735 10.1903 9.18183 9.84345 9.33756 9.50007C9.49139 9.15213 9.81002 8.85286 10.2935 8.60223L9.96466 7.81721L10.306 7.67426L10.6319 8.45245C10.8951 8.3529 11.1635 8.2913 11.4371 8.26765C11.7134 8.23753 11.9659 8.24674 12.1949 8.29528L12.1929 8.7695C11.9568 8.72933 11.7197 8.71895 11.4818 8.73837C11.2439 8.75779 11.0206 8.80583 10.812 8.8825L11.5697 10.6915C11.9408 10.6323 12.2513 10.6012 12.5015 10.5981C12.7496 10.5904 12.9828 10.6425 13.2008 10.7545C13.4189 10.8664 13.587 11.0634 13.7052 11.3456ZM9.81672 10.3184C9.91583 10.555 10.0776 10.6986 10.302 10.749C10.5309 10.7976 10.8273 10.7964 11.1912 10.7457L10.4764 9.03911C10.1511 9.20746 9.93534 9.40749 9.82912 9.6392C9.72555 9.86446 9.72141 10.0909 9.81672 10.3184ZM12.4846 12.8758C12.8327 12.698 13.0663 12.4958 13.1854 12.2694C13.3046 12.043 13.3155 11.8137 13.2183 11.5816C13.1154 11.3359 12.9449 11.1906 12.7068 11.1459C12.4688 11.1012 12.1565 11.109 11.7698 11.1693L12.4846 12.8758Z" fill="#0E456F"/>
<path d="M17.9953 10.558C18.5682 14.1696 16.1263 17.5574 12.552 18.1327C8.9778 18.708 5.60949 16.2556 5.03663 12.644C4.46377 9.03239 6.90572 5.64465 10.4799 5.06931C14.0542 4.49398 17.4225 6.94645 17.9953 10.558Z" stroke="#0E456F" stroke-width="1.3"/>
</svg>
