<svg width="26" height="25" viewBox="0 0 26 25" fill="none" xmlns="http://www.w3.org/2000/svg">
<path d="M1.35999 10.5433L1.09859 10.1171C0.981638 10.1888 0.899292 10.3054 0.870849 10.4396C0.842405 10.5739 0.870362 10.7139 0.948171 10.8269L1.35999 10.5433ZM13.0418 3.37931L13.3019 2.95229C13.1417 2.8547 12.9404 2.85501 12.7805 2.95308L13.0418 3.37931ZM25.28 10.8337L25.7078 11.0925C25.8504 10.8567 25.7754 10.5501 25.5401 10.4067L25.28 10.8337ZM24.1674 12.6731L23.9073 13.1002C24.0208 13.1693 24.1571 13.1904 24.2862 13.1588C24.4153 13.1273 24.5265 13.0456 24.5953 12.9319L24.1674 12.6731ZM21.9423 11.3178L22.2024 10.8908C22.0481 10.7968 21.855 10.7934 21.6974 10.8819C21.5398 10.9704 21.4423 11.1371 21.4423 11.3178H21.9423ZM21.9423 24V24.5C22.2185 24.5 22.4423 24.2761 22.4423 24H21.9423ZM5.05166 24H4.55166C4.55166 24.2761 4.77551 24.5 5.05166 24.5V24ZM5.05166 11.3178H5.55166C5.55166 11.1371 5.45412 10.9704 5.29655 10.8819C5.13898 10.7934 4.9459 10.7968 4.79155 10.8908L5.05166 11.3178ZM2.82654 12.6731L2.41473 12.9567C2.56518 13.1752 2.86008 13.2382 3.08664 13.1002L2.82654 12.6731ZM17.7449 3.37931V2.87931C17.4688 2.87931 17.2449 3.10317 17.2449 3.37931H17.7449ZM21.6389 3.37931H22.1389C22.1389 3.10317 21.915 2.87931 21.6389 2.87931V3.37931ZM15.0286 14.4828V13.9828C14.7524 13.9828 14.5286 14.2066 14.5286 14.4828H15.0286ZM18.8728 14.4828H19.3728C19.3728 14.2066 19.149 13.9828 18.8728 13.9828V14.4828ZM18.8728 18.0517V18.5517C19.149 18.5517 19.3728 18.3279 19.3728 18.0517H18.8728ZM15.0286 18.0517H14.5286C14.5286 18.3279 14.7524 18.5517 15.0286 18.5517V18.0517ZM7.33999 14.4828V13.9828C7.06384 13.9828 6.83999 14.2066 6.83999 14.4828H7.33999ZM12.4657 14.4828H12.9657C12.9657 14.2066 12.7418 13.9828 12.4657 13.9828V14.4828ZM12.4657 24V24.5C12.7418 24.5 12.9657 24.2761 12.9657 24H12.4657ZM7.33999 24H6.83999C6.83999 24.2761 7.06384 24.5 7.33999 24.5V24ZM16.7371 1V0.5C16.461 0.5 16.2371 0.723858 16.2371 1H16.7371ZM22.7171 1H23.2171C23.2171 0.723858 22.9933 0.5 22.7171 0.5V1ZM22.7171 3.37931V3.87931C22.9933 3.87931 23.2171 3.65545 23.2171 3.37931H22.7171ZM16.7371 3.37931H16.2371C16.2371 3.65545 16.461 3.87931 16.7371 3.87931V3.37931ZM5.84936 10.2136C5.61491 10.3595 5.54314 10.6678 5.68905 10.9023C5.83497 11.1367 6.14331 11.2085 6.37775 11.0626L5.84936 10.2136ZM12.9435 6.97622C13.1779 6.83031 13.2497 6.52197 13.1038 6.28753C12.9579 6.05308 12.6495 5.98131 12.4151 6.12722L12.9435 6.97622ZM1.62138 10.9695L13.3032 3.80554L12.7805 2.95308L1.09859 10.1171L1.62138 10.9695ZM24.8522 10.575L23.7396 12.4144L24.5953 12.9319L25.7078 11.0925L24.8522 10.575ZM24.4275 12.2461L22.2024 10.8908L21.6822 11.7448L23.9073 13.1002L24.4275 12.2461ZM21.4423 11.3178V24H22.4423V11.3178H21.4423ZM21.9423 23.5H5.05166V24.5H21.9423V23.5ZM5.55166 24V11.3178H4.55166V24H5.55166ZM4.79155 10.8908L2.56644 12.2461L3.08664 13.1002L5.31176 11.7448L4.79155 10.8908ZM3.23835 12.3896L1.7718 10.2597L0.948171 10.8269L2.41473 12.9567L3.23835 12.3896ZM12.7817 3.80633L17.4848 6.67105L18.005 5.81701L13.3019 2.95229L12.7817 3.80633ZM18.2449 6.24403V3.37931H17.2449V6.24403H18.2449ZM17.7449 3.87931H21.6389V2.87931H17.7449V3.87931ZM17.4848 6.67105L21.3788 9.04291L21.899 8.18887L18.005 5.81701L17.4848 6.67105ZM21.3788 9.04291L25.0199 11.2608L25.5401 10.4067L21.899 8.18887L21.3788 9.04291ZM21.1389 3.37931V8.61589H22.1389V3.37931H21.1389ZM15.0286 14.9828H18.8728V13.9828H15.0286V14.9828ZM18.3728 14.4828V18.0517H19.3728V14.4828H18.3728ZM18.8728 17.5517H15.0286V18.5517H18.8728V17.5517ZM15.5286 18.0517V14.4828H14.5286V18.0517H15.5286ZM7.33999 14.9828H12.4657V13.9828H7.33999V14.9828ZM11.9657 14.4828V24H12.9657V14.4828H11.9657ZM12.4657 23.5H7.33999V24.5H12.4657V23.5ZM7.83999 24V14.4828H6.83999V24H7.83999ZM16.7371 1.5H22.7171V0.5H16.7371V1.5ZM22.2171 1V3.37931H23.2171V1H22.2171ZM22.7171 2.87931H16.7371V3.87931H22.7171V2.87931ZM17.2371 3.37931V1H16.2371V3.37931H17.2371ZM16.8778 14.4828V18.0517H17.8778V14.4828H16.8778ZM15.0286 16.3707H18.8728V15.3707H15.0286V16.3707ZM6.37775 11.0626L12.9435 6.97622L12.4151 6.12722L5.84936 10.2136L6.37775 11.0626Z" fill="#0E456F"/>
</svg>
