<svg width="27" height="25" viewBox="0 0 27 25" fill="none" xmlns="http://www.w3.org/2000/svg">
<path d="M11.8889 19.2965L11.6653 19.4083L11.6206 19.6543L11.386 20.9445L11.2471 21.5L7.75289 21.5L7.61402 20.9445L7.37943 19.6543L7.30479 19.2437L6.8875 19.2437C6.791 19.2437 6.66513 19.1923 6.39861 19.059L6.13908 18.9293L5.89765 19.0902L4.8289 19.8027L4.82219 19.8072L4.81563 19.8119L4.32905 20.1594L1.84056 17.6709L2.18812 17.1844L2.1928 17.1778L2.19727 17.1711L2.90977 16.1023L3.07073 15.8609L2.94096 15.6014C2.90971 15.5389 2.89123 15.4721 2.86007 15.3475L2.85688 15.3347C2.82876 15.222 2.78772 15.0574 2.70346 14.8889L2.59166 14.6653L2.34569 14.6206L1.05547 14.386L0.5 14.2471L0.5 10.7529L1.05547 10.614L2.34569 10.3794L2.59166 10.3347L2.70346 10.1111C2.78772 9.9426 2.82876 9.77804 2.85688 9.6653L2.86007 9.65252C2.89123 9.52787 2.90971 9.46111 2.94096 9.39861L3.07073 9.13908L2.90977 8.89765L2.19727 7.8289L2.1928 7.82219L2.18812 7.81563L1.84056 7.32905L4.32905 4.84056L4.81563 5.18812L4.82219 5.1928L4.8289 5.19727L5.89765 5.90977L6.13908 6.07073L6.39861 5.94096C6.46112 5.90971 6.52788 5.89123 6.65252 5.86007C6.65671 5.85902 6.66097 5.85796 6.66532 5.85688C6.77805 5.82876 6.94261 5.78771 7.11111 5.70346L7.33471 5.59166L7.37943 5.34569L7.61402 4.05547L7.75289 3.5L11.2471 3.5L11.386 4.05547L11.6206 5.34569L11.6653 5.59166L11.8889 5.70346C11.9774 5.74773 12.0609 5.77836 12.1281 5.80146C12.1585 5.8119 12.1824 5.81984 12.2033 5.82679C12.2361 5.83768 12.2615 5.84614 12.2932 5.85801C12.3702 5.88689 12.4192 5.9138 12.4714 5.96605L12.7613 6.2559L13.1024 6.02852L14.1711 5.31602L14.1778 5.31155L14.1844 5.30687L14.671 4.95931L17.0702 7.35851L16.7932 7.84323L16.0902 8.89765L15.9293 9.13908L16.059 9.39861C16.0903 9.46112 16.1088 9.52788 16.1399 9.65252C16.141 9.6567 16.142 9.66097 16.1431 9.66531C16.1712 9.77805 16.2123 9.9426 16.2965 10.1111L16.4083 10.3347L16.6543 10.3794L17.9445 10.614L18.5 10.7529L18.5 14.2471L17.9445 14.386L16.6543 14.6206L16.4083 14.6653L16.2965 14.8889C16.2123 15.0574 16.1712 15.2219 16.1431 15.3347C16.142 15.339 16.141 15.3433 16.1399 15.3475C16.1088 15.4721 16.0903 15.5389 16.059 15.6014L15.9293 15.8609L16.0902 16.1024L16.8027 17.1711L16.8072 17.1778L16.8119 17.1844L17.1594 17.671L14.6709 20.1594L14.1844 19.8119L14.1778 19.8072L14.1711 19.8027L13.1023 19.0902L12.8609 18.9293L12.6014 19.059C12.5389 19.0903 12.4721 19.1088 12.3475 19.1399L12.3347 19.1431C12.222 19.1712 12.0574 19.2123 11.8889 19.2965ZM7.82011 20.8994L7.89301 21.3125L8.3125 21.3125L10.6875 21.3125L11.107 21.3125L11.1799 20.8994L11.4789 19.2051C11.9275 19.0846 12.3712 18.9039 12.8096 18.6658L14.2171 19.5706L14.5561 19.7885L14.8411 19.5036L16.5036 17.8411L16.7885 17.5561L16.5706 17.2171L15.6658 15.8096C15.9039 15.3712 16.0846 14.9275 16.2051 14.4789L17.8994 14.1799L18.3125 14.107L18.3125 13.6875L18.3125 11.3125L18.3125 10.9165L17.927 10.8258L16.2103 10.4219C16.0898 9.96662 15.9073 9.51644 15.6658 9.07161L16.5706 7.66413L16.7885 7.32515L16.5036 7.0402L14.8411 5.3777L14.5415 5.07819L14.1969 5.32438L12.7945 6.32605C12.361 6.092 11.9223 5.91403 11.4789 5.79493L11.1799 4.10061L11.107 3.6875L10.6875 3.6875L8.3125 3.6875L7.89301 3.6875L7.82011 4.10061L7.52111 5.79493C7.07252 5.91541 6.62884 6.09614 6.19036 6.33422L4.78288 5.42941L4.4439 5.21149L4.15895 5.49645L2.49645 7.15895L2.21149 7.4439L2.42941 7.78288L3.33422 9.19036C3.09614 9.62884 2.91541 10.0725 2.79493 10.5211L1.10061 10.8201L0.6875 10.893L0.6875 11.3125L0.6875 13.6875L0.6875 14.107L1.10061 14.1799L2.79493 14.4789C2.91541 14.9275 3.09614 15.3712 3.33422 15.8096L2.42941 17.2171L2.21149 17.5561L2.49645 17.8411L4.15895 19.5036L4.4439 19.7885L4.78288 19.5706L6.19036 18.6658C6.62884 18.9039 7.07252 19.0846 7.52111 19.2051L7.82011 20.8994ZM9.49998 8.84376C11.4801 8.84376 13.1562 10.5199 13.1562 12.5C13.1562 14.4801 11.4801 16.1563 9.49998 16.1563C7.51987 16.1563 5.84373 14.4801 5.84373 12.5C5.84373 10.5199 7.51987 8.84376 9.49998 8.84376ZM9.49998 9.03126C7.56134 9.03126 6.03123 10.5614 6.03123 12.5C6.03123 14.4386 7.56133 15.9688 9.49998 15.9688C11.4386 15.9688 12.9687 14.4386 12.9687 12.5C12.9687 10.5614 11.4386 9.03126 9.49998 9.03126Z" fill="white" stroke="#0E456F"/>
<path d="M21.2383 24.3536C21.4336 24.5489 21.7501 24.5489 21.9454 24.3536L25.1274 21.1716C25.3227 20.9764 25.3227 20.6598 25.1274 20.4645C24.9321 20.2692 24.6155 20.2692 24.4203 20.4645L21.5919 23.2929L18.7634 20.4645C18.5682 20.2692 18.2516 20.2692 18.0563 20.4645C17.8611 20.6598 17.8611 20.9764 18.0563 21.1716L21.2383 24.3536ZM21.0919 4.83337L21.0919 24L22.0919 24L22.0919 4.83337L21.0919 4.83337Z" fill="#0E456F"/>
<path d="M23.3536 0.646406C23.1583 0.451145 22.8417 0.451145 22.6464 0.646406L19.4645 3.82839C19.2692 4.02365 19.2692 4.34023 19.4645 4.53549C19.6597 4.73076 19.9763 4.73076 20.1716 4.53549L23 1.70707L25.8284 4.53549C26.0237 4.73076 26.3403 4.73076 26.5355 4.53549C26.7308 4.34023 26.7308 4.02365 26.5355 3.82839L23.3536 0.646406ZM23.5 20.1666L23.5 0.99996L22.5 0.99996L22.5 20.1666L23.5 20.1666Z" fill="#0E456F"/>
</svg>
