<svg width="25" height="25" viewBox="0 0 25 25" fill="none" xmlns="http://www.w3.org/2000/svg">
<path d="M4.12621 6.80808L1 24H15.068M15.068 24L18.6408 5.18182M15.068 24H24M15.068 24L19.534 21.4444M24 24L19.534 21.4444M24 24L19.534 1.23232V21.4444M7.69903 9.82828C8.5178 9.20875 10.6913 8.34141 12.835 9.82828M6.80582 18.4242C7.25242 18.8889 10.3786 19.8182 11.9417 18.4242M6.35922 12.3838L5.46602 16.101H13.7282L14.6214 12.3838H6.35922ZM3.45631 5.18182H19.0874C19.334 5.18182 19.534 4.97379 19.534 4.71717V1.46465C19.534 1.20803 19.334 1 19.0874 1H3.45631C3.20966 1 3.00971 1.20803 3.00971 1.46465V4.71717C3.00971 4.97379 3.20966 5.18182 3.45631 5.18182Z" stroke="#0E456F" stroke-linecap="round" stroke-linejoin="round"/>
</svg>
