<svg width="23" height="26" viewBox="0 0 23 26" fill="none" xmlns="http://www.w3.org/2000/svg">
<path d="M12.9868 15.3977L4.86989 2.6399C3.27657 0.124554 -0.537745 2.53422 0.864374 4.74772M12.8446 15.397L19.7158 11.6394M18.3415 20.1985C18.3415 22.8503 15.983 25 13.0736 25C10.1642 25 7.80569 22.8503 7.80569 20.1985C7.80569 17.5467 10.1642 15.397 13.0736 15.397C15.983 15.397 18.3415 17.5467 18.3415 20.1985ZM13.1333 12.5917L22.0676 7.89019C22.2867 7.77489 22.3617 7.51954 22.2352 7.31985L20.7111 4.91371C20.5846 4.71401 20.3045 4.64559 20.0854 4.76089L11.1511 9.46236C10.932 9.57765 10.8569 9.833 10.9834 10.0327L12.5076 12.4388C12.6341 12.6385 12.9142 12.707 13.1333 12.5917ZM10.729 8.88678L19.6633 4.18531C19.8824 4.07001 19.9574 3.81466 19.8309 3.61497L18.3068 1.20883C18.1803 1.00913 17.9001 0.940712 17.681 1.05601L8.74679 5.75748C8.52769 5.87277 8.45262 6.12812 8.57912 6.32782L10.1033 8.73396C10.2297 8.93365 10.5099 9.00207 10.729 8.88678Z" stroke="#0E456F" stroke-linecap="round"/>
</svg>
