<svg width="19" height="19" viewBox="0 0 19 19" fill="none" xmlns="http://www.w3.org/2000/svg">
<path d="M11.8889 16.2965L11.6653 16.4083L11.6206 16.6543L11.386 17.9445L11.2471 18.5L7.75289 18.5L7.61402 17.9445L7.37943 16.6543L7.30479 16.2437L6.8875 16.2437C6.791 16.2437 6.66513 16.1923 6.39861 16.059L6.13908 15.9293L5.89765 16.0902L4.8289 16.8027L4.82219 16.8072L4.81563 16.8119L4.32905 17.1594L1.84056 14.6709L2.18812 14.1844L2.1928 14.1778L2.19727 14.1711L2.90977 13.1023L3.07073 12.8609L2.94096 12.6014C2.90971 12.5389 2.89123 12.4721 2.86007 12.3475L2.85688 12.3347C2.82876 12.222 2.78772 12.0574 2.70346 11.8889L2.59166 11.6653L2.34569 11.6206L1.05547 11.386L0.5 11.2471L0.5 7.75289L1.05547 7.61402L2.34569 7.37943L2.59166 7.33471L2.70346 7.11111C2.78772 6.9426 2.82876 6.77804 2.85688 6.6653L2.86007 6.65252C2.89123 6.52787 2.90971 6.46111 2.94096 6.39861L3.07073 6.13908L2.90977 5.89765L2.19727 4.8289L2.1928 4.82219L2.18812 4.81563L1.84056 4.32905L4.32905 1.84056L4.81563 2.18812L4.82219 2.1928L4.8289 2.19727L5.89765 2.90977L6.13908 3.07073L6.39861 2.94096C6.46112 2.90971 6.52788 2.89123 6.65252 2.86007C6.65671 2.85902 6.66097 2.85796 6.66532 2.85688C6.77805 2.82876 6.94261 2.78771 7.11111 2.70346L7.33471 2.59166L7.37943 2.34569L7.61402 1.05547L7.75289 0.5L11.2471 0.5L11.386 1.05547L11.6206 2.34569L11.6653 2.59166L11.8889 2.70346C11.9774 2.74773 12.0609 2.77836 12.1281 2.80146C12.1585 2.8119 12.1824 2.81984 12.2033 2.82679C12.2361 2.83768 12.2615 2.84614 12.2932 2.85801C12.3702 2.88689 12.4192 2.9138 12.4714 2.96605L12.7613 3.2559L13.1024 3.02852L14.1711 2.31602L14.1778 2.31155L14.1844 2.30687L14.671 1.95931L17.0702 4.35851L16.7932 4.84323L16.0902 5.89765L15.9293 6.13908L16.059 6.39861C16.0903 6.46112 16.1088 6.52788 16.1399 6.65252C16.141 6.6567 16.142 6.66097 16.1431 6.66531C16.1712 6.77805 16.2123 6.9426 16.2965 7.11111L16.4083 7.33471L16.6543 7.37943L17.9445 7.61402L18.5 7.75289L18.5 11.2471L17.9445 11.386L16.6543 11.6206L16.4083 11.6653L16.2965 11.8889C16.2123 12.0574 16.1712 12.2219 16.1431 12.3347C16.142 12.339 16.141 12.3433 16.1399 12.3475C16.1088 12.4721 16.0903 12.5389 16.059 12.6014L15.9293 12.8609L16.0902 13.1024L16.8027 14.1711L16.8072 14.1778L16.8119 14.1844L17.1594 14.671L14.6709 17.1594L14.1844 16.8119L14.1778 16.8072L14.1711 16.8027L13.1023 16.0902L12.8609 15.9293L12.6014 16.059C12.5389 16.0903 12.4721 16.1088 12.3475 16.1399L12.3347 16.1431C12.222 16.1712 12.0574 16.2123 11.8889 16.2965ZM7.82011 17.8994L7.89301 18.3125L8.3125 18.3125L10.6875 18.3125L11.107 18.3125L11.1799 17.8994L11.4789 16.2051C11.9275 16.0846 12.3712 15.9039 12.8096 15.6658L14.2171 16.5706L14.5561 16.7885L14.8411 16.5036L16.5036 14.8411L16.7885 14.5561L16.5706 14.2171L15.6658 12.8096C15.9039 12.3712 16.0846 11.9275 16.2051 11.4789L17.8994 11.1799L18.3125 11.107L18.3125 10.6875L18.3125 8.3125L18.3125 7.91649L17.927 7.82579L16.2103 7.42185C16.0898 6.96662 15.9073 6.51644 15.6658 6.07161L16.5706 4.66413L16.7885 4.32515L16.5036 4.0402L14.8411 2.3777L14.5415 2.07819L14.1969 2.32438L12.7945 3.32605C12.361 3.092 11.9223 2.91403 11.4789 2.79493L11.1799 1.10061L11.107 0.6875L10.6875 0.6875L8.3125 0.6875L7.89301 0.6875L7.82011 1.10061L7.52111 2.79493C7.07252 2.91541 6.62884 3.09614 6.19036 3.33422L4.78288 2.42941L4.4439 2.21149L4.15895 2.49645L2.49645 4.15895L2.21149 4.4439L2.42941 4.78288L3.33422 6.19036C3.09614 6.62884 2.91541 7.07252 2.79493 7.52111L1.10061 7.82011L0.6875 7.89301L0.6875 8.3125L0.6875 10.6875L0.6875 11.107L1.10061 11.1799L2.79493 11.4789C2.91541 11.9275 3.09614 12.3712 3.33422 12.8096L2.42941 14.2171L2.21149 14.5561L2.49645 14.8411L4.15895 16.5036L4.4439 16.7885L4.78288 16.5706L6.19036 15.6658C6.62884 15.9039 7.07252 16.0846 7.52111 16.2051L7.82011 17.8994ZM9.49998 5.84376C11.4801 5.84376 13.1562 7.5199 13.1562 9.50001C13.1562 11.4801 11.4801 13.1563 9.49998 13.1563C7.51987 13.1563 5.84373 11.4801 5.84373 9.50001C5.84373 7.5199 7.51987 5.84376 9.49998 5.84376ZM9.49998 6.03126C7.56134 6.03126 6.03123 7.56136 6.03123 9.50001C6.03123 11.4386 7.56133 12.9688 9.49998 12.9688C11.4386 12.9688 12.9687 11.4386 12.9687 9.50001C12.9687 7.56136 11.4386 6.03126 9.49998 6.03126Z" fill="white" stroke="#0E456F"/>
</svg>
