<svg width="25" height="23" viewBox="0 0 25 23" fill="none" xmlns="http://www.w3.org/2000/svg">
<path d="M12.2793 21.7044L12.5144 21.2631L12.489 21.2496L12.4624 21.2391L12.2793 21.7044ZM14.2722 21.7044L14.0378 21.2628L14.0256 21.2692L14.0138 21.2763L14.2722 21.7044ZM23.5161 16.7974L23.7506 17.239L23.7681 17.2297L23.7849 17.2191L23.5161 16.7974ZM14.8659 15.4747L15.0792 15.0224L14.8659 15.4747ZM9.01422 13.4692L8.87255 13.9487L8.87256 13.9487L9.01422 13.4692ZM5.64035 13.9706L5.41613 13.5237L5.64035 13.9706ZM10.4825 10.1765C10.2063 10.1765 9.98246 10.4003 9.98246 10.6765C9.98246 10.9526 10.2063 11.1765 10.4825 11.1765V10.1765ZM16.5351 11.1765C16.8112 11.1765 17.0351 10.9526 17.0351 10.6765C17.0351 10.4003 16.8112 10.1765 16.5351 10.1765V11.1765ZM10.4825 8.94116C10.2063 8.94116 9.98246 9.16502 9.98246 9.44116C9.98246 9.7173 10.2063 9.94116 10.4825 9.94116V8.94116ZM13.7105 9.94116C13.9867 9.94116 14.2105 9.7173 14.2105 9.44116C14.2105 9.16502 13.9867 8.94116 13.7105 8.94116V9.94116ZM19.4149 11.8125L19.9108 11.7481L19.4149 11.8125ZM18.3387 3.51838L17.8429 3.58272L18.3387 3.51838ZM10.8681 3.54221L10.3709 3.48978L10.8681 3.54221ZM3.47519 14.7419L3.26903 14.2864L3.47519 14.7419ZM3.26635 14.8231L3.12819 14.3425L3.26635 14.8231ZM4.33192 18.8489L4.15938 18.3796L4.33192 18.8489ZM5.04319 18.8569L4.8601 19.3221L5.04319 18.8569ZM9.99368 11.8363L10.4909 11.8887L9.99368 11.8363ZM17.2709 16.5913L17.4891 17.0411L17.2709 16.5913ZM17.1228 16.6498L17.2692 17.1279L17.1228 16.6498ZM2.13984 18.5879L2.60936 18.416L2.13984 18.5879ZM3.42397 19.1827L3.59652 19.652L3.42397 19.1827ZM2.03186 15.178L1.89371 14.6975L2.03186 15.178ZM0.89961 16.6548L1.67032 18.7598L2.60936 18.416L1.83865 16.311L0.89961 16.6548ZM3.59652 19.652L4.50447 19.3181L4.15938 18.3796L3.25142 18.7134L3.59652 19.652ZM4.8601 19.3221L12.0962 22.1697L12.4624 21.2391L5.22629 18.3916L4.8601 19.3221ZM12.0442 22.1457C12.3044 22.2843 12.6599 22.4487 13.09 22.4901C13.5327 22.5327 14.0177 22.4421 14.5307 22.1324L14.0138 21.2763C13.6787 21.4787 13.4075 21.5161 13.1859 21.4947C12.9516 21.4721 12.7347 21.3805 12.5144 21.2631L12.0442 22.1457ZM14.5067 22.146L23.7506 17.239L23.2817 16.3558L14.0378 21.2628L14.5067 22.146ZM23.7849 17.2191C24.2201 16.9417 24.5202 16.4746 24.499 15.9556C24.4765 15.4069 24.1046 14.959 23.5149 14.7298C22.9427 14.5074 22.1422 14.4717 21.1025 14.674C20.0547 14.878 18.7213 15.3321 17.0527 16.1414L17.4891 17.0411C19.1072 16.2563 20.3561 15.8381 21.2936 15.6556C22.2392 15.4715 22.8268 15.5352 23.1526 15.6619C23.461 15.7817 23.4972 15.9327 23.4998 15.9965C23.5036 16.0901 23.4459 16.2493 23.2474 16.3758L23.7849 17.2191ZM16.9763 16.1717L14.8725 16.816L15.1653 17.7722L17.2692 17.1279L16.9763 16.1717ZM14.8725 16.816L14.1258 17.0447L14.4186 18.0009L15.1653 17.7722L14.8725 16.816ZM14.2722 17.0228H10.0319V18.0228H14.2722V17.0228ZM14.2722 18.0228C14.6533 18.0228 15.0073 17.9017 15.2952 17.7108L14.7426 16.8774C14.6045 16.969 14.4406 17.0228 14.2722 17.0228V18.0228ZM15.2952 17.7108C15.718 17.4305 16.0507 16.9595 16.0648 16.4181C16.0801 15.8327 15.7226 15.326 15.0792 15.0224L14.6526 15.9269C15.0278 16.1039 15.0677 16.2941 15.0652 16.392C15.0615 16.5339 14.9614 16.7323 14.7426 16.8774L15.2952 17.7108ZM15.0792 15.0224C13.0533 14.0668 10.6744 13.4383 9.15588 12.9897L8.87256 13.9487C10.4354 14.4104 12.7153 15.0131 14.6526 15.9269L15.0792 15.0224ZM9.15589 12.9897C8.96058 12.932 8.68416 12.919 8.41816 12.9222C8.13317 12.9257 7.79657 12.9494 7.44791 12.9928C6.76553 13.0776 5.97016 13.2457 5.41613 13.5237L5.86457 14.4175C6.26316 14.2175 6.92151 14.066 7.5713 13.9852C7.88872 13.9457 8.18782 13.9251 8.43031 13.9221C8.69179 13.919 8.83464 13.9375 8.87255 13.9487L9.15589 12.9897ZM5.41613 13.5237C5.06892 13.6979 4.68126 13.8267 4.3002 13.9429C3.94417 14.0514 3.54622 14.161 3.26903 14.2864L3.68135 15.1975C3.88094 15.1071 4.1781 15.0255 4.59171 14.8994C4.9803 14.781 5.43683 14.6321 5.86457 14.4175L5.41613 13.5237ZM3.12819 14.3425L1.89371 14.6975L2.17002 15.6585L3.4045 15.3036L3.12819 14.3425ZM11.8626 3.14706H17.347V2.14706H11.8626V3.14706ZM17.8429 3.58272L18.9191 11.8768L19.9108 11.7481L18.8346 3.45404L17.8429 3.58272ZM18.4233 12.4412H10.9882V13.4412H18.4233V12.4412ZM10.4909 11.8887L11.3654 3.59463L10.3709 3.48978L9.49643 11.7839L10.4909 11.8887ZM13.5639 2.84624C13.6877 2.56113 13.8538 2.25403 14.0412 1.99995C14.2366 1.73485 14.4167 1.58016 14.552 1.52338C14.6106 1.49877 14.6483 1.49769 14.6743 1.50194C14.7 1.50614 14.7508 1.52148 14.8264 1.58832C14.9929 1.73568 15.2219 2.08257 15.4541 2.80083L16.4056 2.49328C16.1557 1.72005 15.858 1.16584 15.489 0.839336C15.2967 0.669248 15.0774 0.554472 14.8353 0.514979C14.5934 0.475527 14.3654 0.517171 14.1649 0.601322C13.782 0.762051 13.4704 1.08898 13.2363 1.4065C12.9941 1.73503 12.7927 2.11153 12.6466 2.44788L13.5639 2.84624ZM10.4825 11.1765H16.5351V10.1765H10.4825V11.1765ZM10.4825 9.94116H13.7105V8.94116H10.4825V9.94116ZM18.9191 11.8768C18.9579 12.176 18.7249 12.4412 18.4233 12.4412V13.4412C19.3283 13.4412 20.0273 12.6457 19.9108 11.7481L18.9191 11.8768ZM17.347 3.14706C17.5983 3.14706 17.8105 3.33354 17.8429 3.58272L18.8346 3.45404C18.7376 2.70649 18.1008 2.14706 17.347 2.14706V3.14706ZM11.8626 2.14706C11.0951 2.14706 10.4513 2.72647 10.3709 3.48978L11.3654 3.59463C11.3922 3.34019 11.6068 3.14706 11.8626 3.14706V2.14706ZM3.26903 14.2864C3.20332 14.3162 3.16273 14.3326 3.12819 14.3425L3.4045 15.3036C3.51383 15.2722 3.61069 15.2294 3.68135 15.1975L3.26903 14.2864ZM4.50447 19.3181C4.6195 19.2758 4.74606 19.2773 4.8601 19.3221L5.22629 18.3916C4.88414 18.257 4.50447 18.2527 4.15938 18.3796L4.50447 19.3181ZM10.9882 12.4412C10.6913 12.4412 10.4598 12.184 10.4909 11.8887L9.49643 11.7839C9.40305 12.6696 10.0975 13.4412 10.9882 13.4412V12.4412ZM17.0527 16.1414C17.0271 16.1538 17.0001 16.1644 16.9763 16.1717L17.2692 17.1279C17.3456 17.1045 17.4205 17.0745 17.4891 17.0411L17.0527 16.1414ZM1.67032 18.7598C1.95541 19.5385 2.81823 19.9381 3.59652 19.652L3.25142 18.7134C2.99199 18.8088 2.70439 18.6756 2.60936 18.416L1.67032 18.7598ZM1.83865 16.311C1.73891 16.0385 1.8912 15.7387 2.17002 15.6585L1.89371 14.6975C1.05725 14.9379 0.600383 15.8375 0.89961 16.6548L1.83865 16.311Z" fill="#0E456F"/>
</svg>
