<svg width="24" height="24" viewBox="0 0 24 24" fill="none" xmlns="http://www.w3.org/2000/svg">
<g clip-path="url(#clip0)">
<path d="M22.6875 1.93125H20.1V0.5625C20.1 0.413316 20.0407 0.270242 19.9352 0.164752C19.8298 0.0592632 19.6867 0 19.5375 0C19.3883 0 19.2452 0.0592632 19.1398 0.164752C19.0343 0.270242 18.975 0.413316 18.975 0.5625V1.93125H15.075V0.5625C15.075 0.413316 15.0157 0.270242 14.9102 0.164752C14.8048 0.0592632 14.6617 0 14.5125 0C14.3633 0 14.2202 0.0592632 14.1148 0.164752C14.0093 0.270242 13.95 0.413316 13.95 0.5625V1.93125H10.05V0.5625C10.05 0.413316 9.99074 0.270242 9.88525 0.164752C9.77976 0.0592632 9.63668 0 9.4875 0C9.33832 0 9.19524 0.0592632 9.08975 0.164752C8.98426 0.270242 8.925 0.413316 8.925 0.5625V1.93125H5.025V0.5625C5.025 0.413316 4.96574 0.270242 4.86025 0.164752C4.75476 0.0592632 4.61168 0 4.4625 0C4.31332 0 4.17024 0.0592632 4.06475 0.164752C3.95926 0.270242 3.9 0.413316 3.9 0.5625V1.93125H1.3125C0.964403 1.93125 0.630564 2.06953 0.384422 2.31567C0.138281 2.56181 0 2.89565 0 3.24375L0 22.6875C0 23.0356 0.138281 23.3694 0.384422 23.6156C0.630564 23.8617 0.964403 24 1.3125 24H17.8125C17.8497 23.9999 17.8867 23.9961 17.9231 23.9888L17.9719 23.9738C18.0113 23.965 18.0488 23.9491 18.0825 23.9269L18.1256 23.9044C18.1567 23.8836 18.1856 23.8597 18.2119 23.8331L23.8369 18.2081C23.8634 18.1818 23.8873 18.1529 23.9081 18.1219C23.9081 18.1087 23.9213 18.0956 23.9288 18.0825C23.9511 18.0482 23.967 18.0101 23.9756 17.97C23.9756 17.9531 23.9869 17.9381 23.9906 17.9194C23.9971 17.8841 24.0003 17.8483 24 17.8125V3.24375C24 2.89565 23.8617 2.56181 23.6156 2.31567C23.3694 2.06953 23.0356 1.93125 22.6875 1.93125ZM18.375 18.375H22.08L18.375 22.08V18.375ZM1.3125 3.05625H3.9V4.425C3.9 4.57418 3.95926 4.71726 4.06475 4.82275C4.17024 4.92824 4.31332 4.9875 4.4625 4.9875C4.61168 4.9875 4.75476 4.92824 4.86025 4.82275C4.96574 4.71726 5.025 4.57418 5.025 4.425V3.05625H8.925V4.425C8.925 4.57418 8.98426 4.71726 9.08975 4.82275C9.19524 4.92824 9.33832 4.9875 9.4875 4.9875C9.63668 4.9875 9.77976 4.92824 9.88525 4.82275C9.99074 4.71726 10.05 4.57418 10.05 4.425V3.05625H13.95V4.425C13.95 4.57418 14.0093 4.71726 14.1148 4.82275C14.2202 4.92824 14.3633 4.9875 14.5125 4.9875C14.6617 4.9875 14.8048 4.92824 14.9102 4.82275C15.0157 4.71726 15.075 4.57418 15.075 4.425V3.05625H18.975V4.425C18.975 4.57418 19.0343 4.71726 19.1398 4.82275C19.2452 4.92824 19.3883 4.9875 19.5375 4.9875C19.6867 4.9875 19.8298 4.92824 19.9352 4.82275C20.0407 4.71726 20.1 4.57418 20.1 4.425V3.05625H22.6875C22.7372 3.05625 22.7849 3.076 22.8201 3.11117C22.8552 3.14633 22.875 3.19402 22.875 3.24375V5.925H1.125V3.24375C1.125 3.19402 1.14475 3.14633 1.17992 3.11117C1.21508 3.076 1.26277 3.05625 1.3125 3.05625ZM1.125 22.6875V7.05H22.875V17.25H17.8125C17.6633 17.25 17.5202 17.3093 17.4148 17.4148C17.3093 17.5202 17.25 17.6633 17.25 17.8125V22.875H1.3125C1.26277 22.875 1.21508 22.8552 1.17992 22.8201C1.14475 22.7849 1.125 22.7372 1.125 22.6875Z" fill="#525252"/>
<path d="M13.4641 12.624L13.1311 15.216H14.9501V15.8948H13.0414L12.7468 18.24H12.055L12.3497 15.8948H9.72359L9.41615 18.24H8.72441L9.01904 15.8948H7.20001V15.216H9.10871L9.44177 12.624H7.60993V11.9451H9.53144L9.82607 9.59998H10.5306L10.2232 11.9451H12.8621L13.1567 9.59998H13.8484L13.5538 11.9451H15.36V12.624H13.4641ZM12.7724 12.624H10.1463L9.80045 15.216H12.4393L12.7724 12.624Z" fill="#525252"/>
</g>
<defs>
<clipPath id="clip0">
<rect width="24" height="24" fill="white"/>
</clipPath>
</defs>
</svg>
